<?xml version="1.0" standalone="no"?>
<!DOCTYPE svg PUBLIC "-//W3C//DTD SVG 20010904//EN"
 "http://www.w3.org/TR/2001/REC-SVG-20010904/DTD/svg10.dtd">
<svg version="1.0" xmlns="http://www.w3.org/2000/svg"
 width="640.000000pt" height="640.000000pt" viewBox="0 0 640.000000 640.000000"
 preserveAspectRatio="xMidYMid meet">

<g transform="translate(0.000000,640.000000) scale(0.100000,-0.100000)"
fill="#000000" stroke="none">
<path d="M3278 4703 c39 -2 72 -8 72 -13 0 -5 6 -7 14 -4 15 6 131 -15 124
-22 -2 -2 -43 0 -91 4 -100 9 -140 -2 -47 -12 307 -35 644 -211 872 -456 461
-494 526 -1246 155 -1807 -241 -365 -596 -589 -1041 -658 l-91 -15 125 5 c69
2 119 1 112 -1 -7 -3 -68 -14 -135 -24 -139 -20 -115 -25 48 -10 115 11 291
51 334 76 l26 15 -25 -7 c-14 -4 -31 -9 -37 -11 -7 -3 -13 -3 -13 1 0 3 49 30
108 60 185 95 285 167 422 305 78 79 149 162 188 220 305 455 345 1011 107
1507 -148 312 -372 535 -709 710 -94 49 -114 63 -95 66 33 5 -120 47 -236 64
-49 8 -128 13 -175 12 l-85 -2 73 -3z"/>
<path d="M3073 4663 c9 -2 25 -2 35 0 9 3 1 5 -18 5 -19 0 -27 -2 -17 -5z"/>
<path d="M2848 4633 c-70 -14 -126 -29 -123 -32 2 -4 -12 -5 -32 -3 l-35 4 29
19 c15 10 34 19 42 19 8 0 12 3 8 6 -10 10 -164 -45 -259 -92 -417 -207 -705
-579 -810 -1045 -20 -90 -23 -131 -23 -304 0 -232 13 -320 76 -502 57 -165
111 -267 218 -413 145 -199 370 -380 586 -473 130 -55 285 -103 190 -58 -22
11 -35 20 -30 21 6 1 1 6 -10 11 -31 14 48 4 121 -15 82 -22 222 -46 259 -45
17 0 -6 7 -50 15 -230 41 -442 131 -635 270 -25 18 -53 40 -62 48 -10 9 -18
12 -18 7 0 -5 14 -20 32 -32 19 -14 26 -25 19 -27 -7 -2 -25 6 -40 19 -15 13
-9 7 12 -13 39 -37 72 -53 47 -23 -9 10 -9 15 -1 15 10 0 15 -13 12 -32 -1
-10 120 -88 137 -88 6 0 12 -4 12 -10 0 -20 -95 29 -195 99 -328 231 -532 533
-617 911 -20 91 -23 132 -23 310 0 229 10 298 72 474 72 208 174 374 326 533
145 150 347 296 427 308 29 4 31 4 9 -4 -37 -12 -80 -42 -74 -51 3 -5 -9 -18
-27 -30 l-33 -22 30 26 c17 14 25 26 18 26 -16 0 -98 -63 -92 -71 2 -4 -5 -16
-15 -28 -30 -33 -11 -25 62 28 175 126 357 206 569 251 52 11 74 19 53 18 -19
0 -92 -11 -162 -25z m-478 -238 c-7 -8 -17 -15 -22 -15 -6 0 -5 7 2 15 7 8 17
15 22 15 6 0 5 -7 -2 -15z"/>
<path d="M3320 4360 c-23 -23 -25 -45 -5 -80 8 -14 14 -38 15 -53 0 -36 -56
-171 -85 -205 -21 -24 -25 -25 -50 -14 -40 19 -135 94 -179 142 -35 39 -38 45
-31 87 9 59 -12 93 -58 93 -38 0 -50 -7 -66 -38 -16 -31 -6 -57 35 -88 34 -26
34 -27 34 -103 0 -84 -22 -205 -42 -228 -17 -21 -57 -12 -160 36 -86 40 -88
42 -94 81 -7 44 -34 70 -71 70 -32 0 -63 -34 -63 -68 0 -31 18 -51 65 -73 42
-20 57 -58 63 -160 5 -88 5 -88 -21 -94 -32 -8 -132 17 -195 49 -46 24 -56 35
-75 98 -3 9 -16 22 -29 29 l-23 11 21 -20 c12 -11 24 -36 28 -56 4 -19 17 -42
29 -51 27 -19 14 -20 -16 0 -15 9 -27 11 -37 5 -12 -8 -11 -10 6 -10 18 0 248
-165 319 -229 17 -15 39 -34 50 -42 19 -13 19 -13 5 6 -7 11 -36 46 -63 77
-26 32 -45 62 -42 68 3 5 23 10 44 10 100 0 212 66 268 157 46 75 63 128 76
234 6 55 14 99 17 99 3 0 30 -23 60 -51 31 -28 93 -69 139 -92 80 -40 89 -42
171 -42 l87 0 -8 -27 c-29 -104 -135 -237 -245 -308 -36 -24 -61 -46 -56 -49
15 -11 21 -40 9 -45 -8 -3 -7 -5 2 -5 11 -1 10 -5 -5 -16 -18 -15 -17 -16 16
-9 64 11 156 62 199 110 71 77 111 187 111 309 0 44 3 54 23 63 l22 11 -22 0
c-19 1 -21 4 -14 24 6 14 6 30 0 38 -12 19 -11 32 2 23 7 -4 7 2 -1 17 l-13
24 28 -25 c23 -20 20 -14 -12 30 -22 30 -48 70 -58 89 -19 38 -22 98 -6 114
18 18 13 52 -12 75 -29 27 -61 28 -87 2z m113 -302 c58 -81 49 -96 -59 -100
-48 -1 -64 6 -64 32 0 25 58 120 73 120 7 0 29 -24 50 -52z m-637 -247 c24
-11 44 -27 44 -35 0 -17 -94 -96 -115 -96 -17 0 -23 18 -31 97 l-7 66 32 -6
c18 -4 53 -16 77 -26z"/>
<path d="M2279 4313 c-13 -16 -12 -17 4 -4 16 13 21 21 13 21 -2 0 -10 -8 -17
-17z"/>
<path d="M3711 3850 c-1 -41 -8 -104 -15 -140 -16 -75 -19 -153 -6 -145 33 20
51 219 31 320 -8 36 -9 32 -10 -35z"/>
<path d="M3237 3771 c-4 -17 -27 -51 -53 -78 -42 -42 -62 -73 -48 -73 3 0 18
7 34 15 41 21 68 60 76 111 7 51 0 71 -9 25z"/>
<path d="M3470 3621 c-20 -61 -98 -138 -186 -184 -44 -22 -119 -48 -190 -66
-73 -18 -106 -29 -86 -30 40 -1 58 -36 40 -77 -9 -20 -9 -27 1 -33 14 -9 -1
-24 -40 -40 l-24 -10 27 0 c14 -1 61 6 102 14 190 36 321 169 362 367 18 86
14 120 -6 59z"/>
<path d="M3541 3644 c0 -11 3 -14 6 -6 3 7 2 16 -1 19 -3 4 -6 -2 -5 -13z"/>
<path d="M3781 3649 c-1 -9 -22 -40 -48 -69 -49 -55 -65 -87 -35 -71 22 12 72
67 52 57 -8 -4 -6 0 4 8 11 9 17 16 13 16 -4 0 0 11 9 25 9 13 14 30 11 37 -4
9 -6 7 -6 -3z"/>
<path d="M3030 3620 c-11 -7 -7 -10 17 -10 17 0 35 5 38 10 8 13 -35 13 -55 0z"/>
<path d="M3963 3515 c3 -11 17 -49 31 -85 l25 -65 -3 51 c-4 54 -15 82 -42
105 -16 13 -17 12 -11 -6z"/>
<path d="M3487 3445 c-4 -8 -3 -16 1 -19 4 -3 9 4 9 15 2 23 -3 25 -10 4z"/>
<path d="M3657 3420 c-5 -18 -2 -19 33 -14 22 4 53 2 69 -4 40 -14 39 -7 -1
18 -44 27 -94 27 -101 0z"/>
<path d="M3453 3381 c-12 -21 -45 -66 -74 -101 -59 -70 -37 -67 28 3 42 46 80
107 66 107 -5 0 -2 4 6 9 7 5 9 11 4 14 -5 3 -18 -12 -30 -32z"/>
<path d="M3966 3338 c3 -29 9 -77 14 -107 13 -70 13 -152 0 -227 -6 -32 -12
-72 -15 -87 -6 -37 10 -27 34 21 23 46 38 94 22 72 -8 -11 -11 28 -10 141 1
140 -1 161 -20 198 -12 22 -23 41 -25 41 -2 0 -2 -24 0 -52z"/>
<path d="M2757 3285 c-90 -34 -179 -89 -232 -147 -61 -66 -70 -65 -26 3 33 50
73 94 116 127 l30 23 -41 -20 c-56 -27 -139 -104 -171 -158 -38 -66 -44 -180
-13 -264 19 -55 21 -66 10 -105 -8 -26 -11 -75 -8 -119 7 -104 59 -207 171
-336 108 -124 148 -188 155 -245 4 -34 0 -49 -14 -66 -14 -16 -15 -20 -4 -16
8 2 25 23 37 47 36 70 19 141 -71 301 -99 177 -133 294 -123 430 6 92 43 184
105 259 39 48 36 47 -43 -7 -63 -44 -130 -108 -156 -150 -24 -38 -39 -34 -39
12 0 111 98 203 280 261 54 17 86 35 63 35 -7 0 -10 12 -8 30 3 18 0 30 -7 30
-9 0 -9 3 -1 11 6 6 9 18 6 26 -3 7 3 23 12 33 21 23 22 23 -28 5z"/>
<path d="M3615 3260 c-33 -10 -62 -19 -65 -19 -3 -1 2 -6 10 -11 9 -6 11 -10
3 -10 -18 0 -4 -29 21 -42 21 -11 21 -10 3 10 -12 13 -15 22 -8 27 6 3 11 2
11 -3 0 -13 55 -32 88 -32 20 0 23 3 14 12 -7 7 -8 17 -1 30 9 16 5 18 -28 19
l-38 1 32 9 c32 9 55 30 31 28 -7 -1 -40 -9 -73 -19z"/>
<path d="M1917 3157 c-21 -23 -45 -38 -69 -42 l-37 -7 15 -29 c19 -38 53 -53
98 -45 40 8 55 24 35 37 -11 7 -10 9 3 9 16 0 23 14 30 64 2 10 -7 25 -20 33
-21 15 -24 14 -55 -20z"/>
<path d="M2088 3145 c-23 -30 -23 -34 4 -56 20 -18 20 -19 2 -19 -38 -1 29
-29 69 -30 l39 0 -7 43 c-13 75 -21 87 -57 87 -23 -1 -38 -8 -50 -25z"/>
<path d="M2017 3066 c-7 -16 1 -26 20 -26 7 0 13 9 13 20 0 23 -25 27 -33 6z"/>
<path d="M2907 3018 c-11 -105 14 -252 50 -297 17 -21 18 -16 13 131 -4 132
-8 157 -25 180 -11 15 -23 28 -26 28 -4 0 -9 -19 -12 -42z"/>
<path d="M3375 3030 c3 -5 11 -10 16 -10 6 0 7 5 4 10 -3 6 -11 10 -16 10 -6
0 -7 -4 -4 -10z"/>
<path d="M1929 3015 c-14 -7 -31 -26 -38 -41 -11 -24 -10 -30 3 -40 9 -6 16
-20 16 -31 0 -31 32 -66 52 -58 17 7 23 29 31 117 3 36 1 45 -9 41 -8 -3 -14
1 -14 11 0 19 -7 20 -41 1z"/>
<path d="M2063 3015 c-7 -8 -13 -20 -13 -27 0 -9 -3 -9 -10 2 -7 11 -10 -3
-10 -46 0 -69 17 -97 38 -63 7 11 24 24 37 29 21 8 25 16 25 48 0 25 -7 45
-18 55 -22 20 -33 21 -49 2z"/>
<path d="M2814 3005 c-17 -13 -39 -37 -49 -52 -12 -19 0 -11 34 22 47 45 56
55 49 55 -2 0 -17 -11 -34 -25z"/>
<path d="M3008 2943 c5 -10 8 -34 5 -53 l-4 -35 16 34 c19 42 19 44 -6 59 -18
12 -19 11 -11 -5z"/>
<path d="M3747 2928 c-35 -53 -216 -227 -256 -248 -60 -30 -103 -23 -182 30
-56 36 -59 37 -29 10 34 -31 123 -80 146 -80 7 0 41 15 76 33 l65 32 -5 -73
c-4 -66 -2 -78 26 -135 17 -34 52 -82 78 -107 42 -41 45 -42 31 -15 -37 77
-27 173 25 239 23 29 26 36 10 27 -11 -6 -32 -24 -46 -42 -18 -21 -26 -25 -26
-14 0 26 37 90 86 150 25 31 37 52 26 46 -16 -9 -19 -7 -18 12 1 12 -3 28 -8
36 -8 10 -8 13 -1 9 7 -4 11 10 12 38 1 25 7 52 14 60 7 8 7 14 1 14 -5 0 -16
-10 -25 -22z"/>
<path d="M3362 2912 c23 -7 62 -11 86 -8 84 11 69 21 -30 21 -98 0 -99 0 -56
-13z"/>
<path d="M2696 2877 c-44 -69 -59 -137 -54 -246 4 -79 11 -110 37 -173 18 -42
39 -83 48 -90 14 -11 15 -10 10 7 -45 146 -51 185 -51 285 1 86 6 118 27 177
14 40 22 75 18 77 -4 3 -20 -14 -35 -37z"/>
<path d="M3130 2865 c0 -5 5 -17 10 -25 5 -8 10 -10 10 -5 0 6 -5 17 -10 25
-5 8 -10 11 -10 5z"/>
<path d="M3413 2833 c9 -2 23 -2 30 0 6 3 -1 5 -18 5 -16 0 -22 -2 -12 -5z"/>
<path d="M3150 2812 c0 -7 -4 -10 -10 -7 -16 10 -12 -4 21 -66 42 -78 125
-159 209 -203 82 -44 101 -46 41 -7 -71 47 -160 140 -212 221 -27 41 -49 69
-49 62z m19 -42 c11 -24 11 -24 -3 -6 -9 11 -16 24 -16 30 0 12 5 7 19 -24z"/>
<path d="M3000 2672 c0 -4 14 -23 30 -42 l31 -35 -23 42 c-21 39 -38 55 -38
35z"/>
<path d="M2913 2605 c3 -33 15 -84 28 -113 26 -62 36 -64 14 -2 -19 53 -19 60
1 35 17 -21 17 -20 -9 36 -9 20 -18 49 -21 64 -10 53 -19 39 -13 -20z"/>
<path d="M3154 2602 c4 -7 12 -26 16 -43 8 -26 7 -29 -5 -19 -8 7 -15 8 -15 4
0 -16 50 -84 62 -84 7 0 7 4 -1 14 -7 8 -10 31 -7 55 4 36 2 43 -26 63 -18 12
-28 16 -24 10z"/>
<path d="M3050 2435 c16 -20 20 -76 7 -86 -5 -3 23 -35 63 -70 124 -111 159
-186 121 -262 -11 -22 -19 -42 -17 -44 6 -7 75 93 91 131 32 76 6 157 -71 225
-50 44 -219 136 -194 106z"/>
<path d="M3821 2331 c-15 -21 -33 -31 -61 -36 -22 -4 -40 -11 -40 -17 0 -5 13
-23 29 -39 33 -33 84 -39 117 -14 16 13 17 16 4 25 -13 8 -13 10 3 10 9 0 18
3 18 8 7 46 6 68 -3 79 -17 21 -45 15 -67 -16z"/>
<path d="M3996 2325 c-18 -28 -21 -45 -5 -45 5 0 7 -4 4 -10 -3 -5 0 -10 7
-10 10 0 10 -2 -1 -9 -11 -7 -10 -11 5 -19 49 -25 105 -24 100 1 -2 7 -6 24
-9 40 -4 15 -9 38 -12 52 -8 36 -66 36 -89 0z"/>
<path d="M2769 2305 c5 -11 17 -29 26 -40 l16 -20 -10 20 c-5 11 -17 29 -26
40 l-16 20 10 -20z"/>
<path d="M3920 2240 c0 -11 7 -20 15 -20 8 0 15 9 15 20 0 11 -7 20 -15 20 -8
0 -15 -9 -15 -20z"/>
<path d="M3833 2191 c-39 -24 -51 -56 -29 -80 9 -10 16 -26 16 -37 0 -11 6
-29 14 -40 12 -15 18 -17 33 -8 21 13 31 44 32 107 1 35 -3 47 -14 47 -9 0
-12 6 -9 15 8 20 -5 19 -43 -4z"/>
<path d="M3975 2200 c3 -5 1 -10 -4 -10 -6 0 -11 -10 -12 -22 0 -22 -1 -22 -9
-3 -6 14 -9 0 -9 -47 -1 -71 9 -90 31 -59 8 11 26 25 41 30 53 20 27 121 -31
121 -7 0 -10 -4 -7 -10z"/>
<path d="M2920 2186 c0 -21 27 -50 83 -87 66 -44 65 -43 -25 41 -32 29 -58 50
-58 46z"/>
<path d="M3128 1723 c7 -3 16 -2 19 1 4 3 -2 6 -13 5 -11 0 -14 -3 -6 -6z"/>
</g>
</svg>
