<?xml version="1.0" standalone="no"?>
<!DOCTYPE svg PUBLIC "-//W3C//DTD SVG 20010904//EN"
 "http://www.w3.org/TR/2001/REC-SVG-20010904/DTD/svg10.dtd">
<svg version="1.0" xmlns="http://www.w3.org/2000/svg"
 width="870.000000pt" height="562.000000pt" viewBox="0 0 870.000000 562.000000"
 preserveAspectRatio="xMidYMid meet">

<g transform="translate(0.000000,562.000000) scale(0.100000,-0.100000)"
fill="#000000" stroke="none">
<path d="M0 2810 l0 -2810 4350 0 4350 0 0 2810 0 2810 -4350 0 -4350 0 0
-2810z m4843 2621 c34 -51 53 -98 80 -195 19 -71 22 -106 22 -286 0 -205 0
-205 -37 -346 -39 -146 -99 -328 -175 -524 -216 -559 -292 -821 -305 -1050
l-3 -45 -33 60 c-81 148 -118 316 -126 575 -4 145 33 282 121 439 20 37 88
149 152 251 172 277 257 469 290 654 23 125 9 405 -24 489 -13 31 12 18 38
-22z m-274 -409 c53 -26 75 -63 75 -125 1 -72 -24 -118 -78 -145 -56 -28 -100
-28 -151 2 -54 32 -80 87 -72 152 9 80 70 134 152 134 22 0 55 -8 74 -18z
m-309 -322 c108 -160 126 -380 44 -550 -18 -38 -37 -70 -42 -70 -11 0 -47 74
-61 125 -18 65 -9 555 10 555 5 0 27 -27 49 -60z m-525 -90 c57 -39 150 -135
193 -200 105 -158 139 -302 152 -639 14 -338 38 -463 127 -648 38 -78 103
-169 152 -210 33 -29 26 -29 -51 1 -195 73 -343 165 -467 287 -137 136 -200
248 -242 434 -18 85 -12 305 16 519 36 281 34 372 -11 515 l-7 25 49 -29 c27
-15 67 -40 89 -55z m1553 15 c-29 -80 -28 -238 2 -445 31 -222 37 -442 16
-550 -55 -273 -248 -500 -551 -648 -59 -29 -212 -92 -223 -92 -2 0 15 19 37
42 119 121 204 316 240 548 6 36 13 153 16 260 6 227 17 320 51 436 43 148
132 298 227 380 40 34 198 136 203 131 1 -1 -7 -29 -18 -62z m-2103 -268 c134
-60 261 -143 328 -214 27 -29 27 -30 17 -104 -6 -41 -11 -126 -11 -190 0 -288
105 -546 293 -725 75 -71 195 -156 236 -169 13 -4 22 -9 20 -11 -3 -2 -66 16
-142 41 -189 61 -308 127 -411 230 -138 137 -200 277 -275 621 -65 301 -88
372 -178 558 -7 14 46 -2 123 -37z m2625 -39 c-53 -115 -82 -207 -125 -404
-78 -358 -134 -509 -234 -634 -107 -133 -278 -240 -482 -301 -54 -16 -102 -29
-106 -29 -4 0 26 20 66 44 240 143 411 405 450 690 14 98 14 238 0 345 l-10
84 38 39 c21 22 66 60 100 84 83 60 286 161 330 163 7 1 -5 -34 -27 -81z
m-2964 -259 c83 -15 173 -43 236 -75 29 -14 54 -27 55 -28 1 0 7 -39 13 -86
13 -97 54 -268 77 -320 8 -19 30 -67 48 -107 128 -278 391 -481 712 -548 l68
-15 -130 5 c-303 10 -508 106 -672 315 -67 86 -94 133 -228 399 -118 234 -183
342 -255 424 l-42 47 29 0 c16 0 56 -5 89 -11z m3309 -16 c-74 -74 -139 -182
-281 -463 -54 -107 -122 -235 -152 -284 -166 -269 -396 -398 -732 -411 l-125
-5 80 20 c443 113 723 427 799 895 9 55 19 114 21 131 5 27 14 36 70 62 98 48
216 78 309 81 l39 1 -28 -27z m-1519 -578 c26 -69 16 -165 -28 -257 -36 -75
-84 -142 -97 -134 -22 14 -5 224 25 309 18 52 62 127 74 127 4 0 16 -20 26
-45z m-1731 0 c44 -8 90 -17 102 -20 17 -4 35 -29 64 -88 62 -122 113 -193
204 -282 127 -125 270 -197 457 -232 109 -20 370 -22 487 -4 40 6 76 9 79 6 9
-9 -181 -93 -269 -119 -131 -38 -231 -49 -401 -44 -139 4 -161 7 -245 36 -171
58 -306 151 -549 378 -65 61 -137 127 -159 146 -69 61 -206 147 -261 165 -30
9 -54 20 -54 24 0 10 73 37 130 49 62 13 318 4 415 -15z m3585 -8 c58 -23 62
-27 40 -33 -103 -30 -261 -142 -445 -315 -251 -237 -364 -318 -527 -379 -195
-72 -495 -68 -728 10 -110 37 -277 126 -199 107 13 -3 92 -11 175 -18 248 -19
447 11 611 92 178 88 311 226 414 429 24 47 47 88 52 91 4 3 61 14 125 23 64
10 124 19 132 21 8 2 76 3 150 1 117 -3 144 -7 200 -29z m-4177 -701 c95 -16
144 -40 181 -89 48 -65 60 -162 30 -237 -24 -60 -40 -46 -36 33 7 131 -64 220
-196 248 -36 7 -111 10 -202 6 -119 -4 -161 -9 -235 -31 -114 -34 -206 -85
-272 -151 -63 -64 -75 -114 -48 -198 22 -67 41 -99 145 -232 47 -60 117 -152
155 -202 l69 -93 88 0 c52 0 88 -4 88 -10 0 -6 -32 -10 -75 -10 -41 0 -75 -2
-75 -5 0 -3 9 -34 21 -68 32 -93 17 -179 -43 -257 -58 -74 -231 -138 -398
-147 -174 -9 -345 36 -394 103 -26 37 -32 103 -12 142 9 17 31 42 49 56 100
76 377 159 610 182 37 3 67 10 67 14 0 4 -70 101 -157 216 -86 115 -167 232
-180 260 -71 156 -17 275 167 366 122 60 204 83 400 112 60 8 172 5 253 -8z
m4325 -6 c67 -15 131 -62 160 -120 26 -53 30 -151 8 -205 -24 -57 -36 -42 -36
43 -1 184 -95 252 -352 253 -162 0 -281 -25 -403 -85 -159 -78 -224 -158 -210
-254 10 -66 61 -153 176 -302 57 -74 127 -165 154 -202 l50 -68 93 0 c54 0 92
-4 92 -10 0 -6 -31 -10 -74 -10 -41 0 -77 -4 -80 -9 -3 -5 2 -24 12 -42 12
-24 17 -58 17 -115 0 -72 -3 -86 -30 -130 -40 -64 -104 -106 -223 -146 -91
-30 -106 -32 -242 -32 -124 -1 -156 2 -217 22 -39 12 -86 34 -103 48 -76 65
-80 155 -8 220 81 75 389 169 621 190 42 4 77 8 77 10 0 1 -70 94 -155 206
-181 238 -218 305 -219 393 0 113 51 174 217 255 100 48 215 82 341 100 76 11
264 5 334 -10z m192 -735 c0 -3 -31 -52 -68 -108 -125 -187 -130 -199 -72
-178 18 6 60 14 95 17 59 6 65 5 89 -19 34 -34 35 -92 1 -158 -28 -56 -29 -55
72 -31 65 16 77 23 125 73 70 72 131 120 196 154 48 25 60 27 119 22 38 -4 73
-2 84 4 31 16 41 1 20 -30 -142 -199 -281 -527 -281 -663 0 -40 4 -50 26 -64
91 -60 307 49 455 230 30 36 60 66 67 66 76 1 -239 -302 -354 -340 -59 -20
-126 -16 -172 10 -53 30 -66 64 -59 143 11 113 110 372 178 469 37 51 18 38
-95 -66 -111 -102 -268 -216 -299 -216 -37 0 -35 61 3 136 16 32 30 60 30 61
0 0 -42 -12 -93 -27 -51 -15 -113 -41 -137 -58 -80 -53 -181 -92 -242 -92 -21
0 -28 5 -28 19 0 21 40 39 195 90 79 26 93 34 119 70 23 31 31 55 34 100 4 52
2 60 -19 75 -32 22 -77 20 -144 -5 -60 -22 -75 -39 -182 -199 -49 -73 -123
-212 -137 -257 -7 -22 -4 -23 38 -23 27 0 46 -5 46 -11 0 -7 -16 -9 -49 -4
l-48 6 -33 -83 c-189 -476 -384 -792 -582 -945 -84 -64 -155 -94 -243 -100
-72 -6 -79 -4 -150 31 -213 105 -273 357 -144 606 32 63 187 213 286 277 193
126 475 214 732 230 l103 6 22 46 c12 25 55 106 95 180 62 112 72 136 63 152
-16 25 -7 43 31 61 23 11 61 59 137 171 58 86 114 160 125 166 22 11 45 14 45
6z m-3172 -112 c4 -25 -52 -93 -77 -93 -20 0 -41 19 -41 36 0 7 15 29 34 49
40 42 79 45 84 8z m-1240 -23 c21 -20 27 -42 23 -84 -2 -26 -31 -57 -44 -49
-6 3 -7 1 -3 -6 5 -7 -12 -20 -48 -37 -31 -14 -56 -27 -56 -30 0 -11 224 7
256 21 21 8 39 13 42 10 3 -2 -12 -12 -33 -20 -25 -11 -97 -20 -223 -26 -211
-12 -197 -6 -252 -113 -33 -65 -40 -137 -16 -168 24 -32 125 -15 225 36 40 21
59 12 34 -16 -22 -25 -116 -73 -160 -82 -40 -9 -93 14 -128 56 -29 35 -33 92
-10 157 44 126 179 292 280 344 61 32 85 33 113 7z m2067 -5 c53 -52 22 -129
-69 -171 l-51 -23 100 0 c103 0 161 13 196 45 10 9 19 13 19 7 0 -5 -8 -17
-18 -26 -40 -36 -86 -45 -270 -52 l-184 -8 -32 -51 c-56 -90 -66 -133 -50
-213 6 -29 6 -29 62 -22 48 5 103 24 201 66 9 4 12 0 9 -13 -4 -23 -116 -89
-164 -99 -26 -4 -47 0 -77 15 -97 47 -106 119 -33 261 25 50 46 93 46 97 0 7
-62 35 -65 29 -14 -25 -100 -135 -166 -213 -96 -111 -165 -164 -214 -164 -47
0 -60 20 -41 64 8 20 11 36 6 36 -6 0 -38 -21 -72 -46 -75 -55 -130 -84 -158
-84 -28 0 -80 52 -80 79 0 39 115 341 143 379 6 7 22 12 36 10 50 -6 39 -48
-57 -228 -50 -93 -87 -172 -84 -182 10 -39 103 -9 230 74 55 36 68 51 113 132
91 161 124 199 144 166 3 -6 -19 -55 -49 -111 -74 -135 -111 -228 -97 -242 8
-8 17 -8 29 -1 30 19 291 357 303 393 19 58 72 89 97 58 8 -9 6 -21 -8 -42
-23 -35 -25 -58 -7 -73 10 -9 30 5 88 61 71 70 145 117 182 117 10 0 29 -11
42 -25z m-990 -126 c4 -5 -1 -19 -11 -30 -13 -15 -25 -18 -46 -14 -68 15 -270
-160 -382 -332 -15 -22 -35 -43 -44 -46 -9 -3 -25 -8 -35 -12 -12 -5 -1 19 33
76 72 118 132 247 125 269 -4 14 7 25 51 49 32 17 61 31 66 31 16 0 7 -26 -25
-75 -73 -109 -75 -114 -21 -64 106 99 201 159 251 159 17 0 35 -5 38 -11z
m1520 0 c4 -5 -1 -19 -11 -30 -13 -15 -25 -18 -47 -13 -24 5 -43 -3 -112 -50
-86 -58 -163 -137 -247 -253 -27 -38 -65 -76 -84 -86 -19 -9 -34 -15 -34 -12
0 4 21 41 47 83 74 122 135 250 128 271 -5 15 6 25 51 50 53 28 74 32 74 12 0
-5 -19 -37 -43 -72 -64 -95 -65 -98 -11 -49 105 97 202 159 251 159 17 1 35
-4 38 -10z m-2295 -17 c0 -4 -20 -34 -45 -67 -53 -71 -112 -181 -103 -191 4
-4 37 21 73 55 126 117 279 219 311 207 23 -9 17 -26 -35 -100 -99 -144 -180
-334 -188 -443 -5 -67 -4 -73 20 -97 34 -33 75 -34 146 0 74 34 181 122 220
180 34 52 41 94 15 94 -27 0 -11 35 18 38 22 3 29 -2 34 -22 18 -73 -126 -247
-265 -320 -124 -65 -224 -60 -252 12 -14 34 -12 122 2 176 15 58 89 203 154
302 30 47 55 91 55 99 0 47 -94 -19 -255 -177 -99 -98 -145 -131 -161 -115 -6
6 96 187 149 267 50 75 107 129 107 102z m950 -790 l955 -7 -1040 -5 c-1147
-6 -2240 1 -1825 10 409 10 927 10 1910 2z m879 -166 c9 -10 7 -19 -9 -37 -21
-26 -26 -20 -9 12 9 18 8 19 -18 13 -25 -7 -27 -6 -14 9 16 21 35 22 50 3z
m-558 -22 c9 -3 16 -17 16 -34 0 -24 -3 -27 -18 -17 -13 8 -21 7 -33 -2 -10
-8 -16 -9 -16 -3 0 6 9 17 20 25 18 12 18 15 5 20 -8 4 -15 11 -15 18 0 6 6 8
13 5 6 -3 19 -9 28 -12z m-1016 -14 c3 -5 -1 -20 -10 -32 -16 -23 -16 -23 -9
6 6 26 5 28 -16 21 -15 -5 -20 -4 -16 4 9 14 43 14 51 1z m-1665 -18 c0 -5
-11 -14 -25 -20 -28 -13 -35 1 -7 17 21 13 32 14 32 3z m1000 0 c0 -8 -43 -32
-55 -32 -14 0 -2 18 18 28 28 13 37 14 37 4z m2208 -4 c19 -19 14 -30 -9 -17
-15 8 -24 8 -32 0 -20 -20 -31 -12 -12 9 21 23 36 25 53 8z m-2148 -32 c0 -7
-7 -19 -15 -26 -11 -9 -15 -33 -15 -84 0 -82 -11 -103 -57 -112 -26 -5 -37 -1
-57 19 -24 24 -26 34 -26 106 0 44 5 83 10 86 6 4 10 -23 10 -74 0 -68 3 -84
20 -101 24 -24 39 -25 65 -6 16 11 19 27 18 94 0 61 4 82 14 86 8 3 11 10 8
16 -3 5 1 10 9 10 9 0 16 -6 16 -14z m-800 -111 c0 -78 -3 -105 -12 -104 -7 0
-38 38 -68 84 -30 46 -57 81 -60 79 -2 -3 -3 -38 -2 -79 2 -43 -1 -76 -7 -80
-8 -4 -11 27 -11 95 0 125 7 127 85 15 l55 -79 0 80 c0 71 4 94 17 94 2 0 3
-47 3 -105z m70 55 l0 -50 49 0 50 0 3 48 c6 88 23 44 23 -58 0 -102 -17 -146
-23 -57 l-3 47 -49 0 -49 0 -3 -47 c-5 -84 -23 -53 -26 46 -3 98 0 121 18 121
5 0 10 -22 10 -50z m345 40 c4 -6 -5 -10 -19 -10 l-26 0 0 -94 c0 -53 -4 -98
-10 -101 -5 -3 -10 0 -11 7 0 7 -1 51 -2 98 -2 80 -3 85 -24 88 -13 2 -23 8
-23 13 0 12 107 12 115 -1z m45 -46 l0 -44 55 0 55 0 0 45 c0 25 5 45 10 45 6
0 10 -40 10 -100 0 -60 -4 -100 -10 -100 -5 0 -10 20 -10 45 l0 45 -55 0 -55
0 0 -44 c0 -25 -4 -48 -10 -51 -6 -4 -10 33 -10 105 0 72 4 109 10 105 6 -3
10 -26 10 -51z m492 46 c32 -13 63 -39 55 -46 -3 -3 -18 3 -33 15 -15 11 -40
21 -56 21 -41 0 -88 -48 -88 -90 0 -42 47 -90 88 -90 16 0 41 10 56 21 35 27
43 19 11 -11 -54 -50 -151 -20 -169 54 -13 49 1 85 43 113 37 25 58 28 93 13z
m1305 -4 c3 -3 -6 -6 -20 -6 l-27 0 0 -95 c0 -57 -4 -95 -10 -95 -6 0 -10 38
-10 95 0 88 -1 95 -20 95 -11 0 -20 5 -20 11 0 11 95 7 107 -5z m53 -97 c0
-59 -4 -99 -10 -99 -6 0 -10 42 -10 106 0 67 4 103 10 99 6 -3 10 -50 10 -106z
m150 101 c0 -5 -20 -10 -45 -10 l-45 0 0 -40 0 -40 45 0 c25 0 45 -4 45 -10 0
-5 -21 -10 -46 -10 l-45 0 3 -37 c3 -38 3 -38 46 -37 23 1 42 -2 42 -7 0 -5
-25 -9 -55 -9 l-55 0 0 99 0 100 53 4 c28 2 53 4 55 5 1 1 2 -2 2 -8z m520
-98 c44 -103 44 -102 30 -102 -5 0 -16 16 -25 36 -14 34 -16 35 -62 32 -43 -3
-49 -6 -62 -35 -14 -31 -31 -44 -31 -23 0 13 70 172 83 188 14 18 22 8 67 -96z
m157 16 c25 -38 49 -68 54 -68 5 0 7 34 6 75 -1 43 2 76 8 77 6 2 11 -37 13
-99 2 -83 0 -103 -11 -103 -8 0 -41 39 -73 87 l-59 88 -3 -88 c-1 -48 -7 -87
-12 -87 -11 0 -14 193 -3 203 10 11 33 -13 80 -85z m-3604 70 c23 -12 46 -37
47 -52 0 -4 -13 6 -30 24 -25 27 -35 31 -72 28 -42 -3 -43 -4 -46 -40 -3 -37
-2 -38 30 -39 l33 -1 -30 -7 c-27 -6 -30 -10 -30 -46 0 -38 2 -40 32 -43 51
-5 90 22 103 69 13 46 25 47 15 1 -10 -48 -47 -75 -110 -80 l-55 -4 0 44 c0
24 -5 49 -12 56 -9 9 -9 12 0 12 8 0 12 17 12 45 l0 45 46 0 c25 0 55 -5 67
-12z m209 -35 c36 -83 60 -138 65 -145 2 -5 -1 -8 -7 -8 -6 0 -18 16 -26 35
-14 33 -17 35 -65 35 -48 0 -51 -1 -65 -36 -8 -20 -18 -34 -21 -31 -4 5 55
155 74 190 10 17 26 4 45 -40z m1423 -38 c18 -44 36 -80 41 -80 4 0 22 36 38
79 17 44 36 81 43 83 7 3 -7 -39 -30 -93 -24 -54 -47 -99 -53 -101 -6 -2 -29
42 -52 98 -23 55 -37 99 -31 97 6 -2 26 -39 44 -83z m223 78 l-48 -4 0 -40 0
-39 47 0 c54 0 50 -13 -5 -14 -36 -1 -37 -2 -40 -43 l-3 -42 48 -4 48 -3 -52
-2 -53 -2 0 100 0 100 53 -2 52 -2 -47 -3z m313 -19 c11 -11 22 -37 26 -58 11
-71 -36 -116 -122 -116 l-45 0 0 50 c0 33 -4 50 -12 51 -10 0 -10 2 0 6 7 3
12 23 12 50 l0 45 60 -4 c43 -3 67 -10 81 -24z m134 17 c-49 -6 -50 -6 -53
-43 l-3 -38 45 0 c25 0 46 -4 46 -10 0 -5 -21 -10 -46 -10 l-45 0 3 -37 c3
-38 4 -38 53 -44 l50 -6 -57 -1 -58 -2 0 100 0 100 58 -2 57 -1 -50 -6z m209
-13 c22 -31 20 -45 -9 -73 -16 -17 -35 -25 -60 -25 -34 0 -35 -1 -35 -40 0
-22 -4 -40 -10 -40 -6 0 -10 40 -10 100 l0 100 54 0 c45 0 58 -4 70 -22z m527
-58 c18 -44 36 -80 39 -80 3 0 21 36 39 80 25 60 38 80 52 80 17 0 19 -9 19
-100 0 -60 -4 -100 -10 -100 -6 0 -10 36 -10 87 0 47 -3 83 -7 79 -4 -3 -21
-41 -39 -84 -17 -42 -38 -77 -45 -77 -7 0 -27 35 -44 77 -17 42 -34 80 -38 84
-4 4 -7 -34 -7 -85 0 -59 -4 -90 -10 -86 -6 3 -10 50 -10 106 0 90 2 99 19 99
14 0 27 -20 52 -80z m-741 -162 c0 -16 -3 -19 -11 -11 -6 6 -8 16 -5 22 11 17
16 13 16 -11z"/>
<path d="M4621 4934 c0 -11 3 -14 6 -6 3 7 2 16 -1 19 -3 4 -6 -2 -5 -13z"/>
<path d="M2298 2733 c7 -3 16 -2 19 1 4 3 -2 6 -13 5 -11 0 -14 -3 -6 -6z"/>
<path d="M2365 2715 c17 -8 36 -14 43 -15 6 0 12 -4 12 -10 0 -5 5 -10 10 -10
25 0 6 19 -33 34 -51 19 -74 20 -32 1z"/>
<path d="M2462 2645 c12 -14 23 -23 25 -21 6 5 -29 46 -39 46 -4 0 2 -11 14
-25z"/>
<path d="M1725 1764 c-263 -47 -513 -143 -571 -219 -37 -49 -36 -87 5 -129 42
-44 119 -59 286 -59 127 0 232 21 316 64 55 28 119 88 136 126 20 48 16 127
-8 184 -25 57 -28 57 -164 33z"/>
<path d="M6080 1775 c-8 -2 -69 -13 -134 -25 -210 -38 -454 -135 -509 -201
-47 -57 -31 -126 38 -159 51 -24 232 -44 320 -35 128 14 230 48 308 102 87 60
114 172 67 269 -25 49 -44 59 -90 49z"/>
<path d="M7265 1734 c-43 -22 -182 -160 -220 -219 -47 -74 -55 -125 -18 -125
34 0 277 225 330 306 31 47 -28 72 -92 38z"/>
<path d="M6225 1202 c-93 -6 -234 -35 -344 -71 -206 -68 -377 -167 -532 -306
-138 -125 -194 -234 -194 -380 0 -65 5 -90 26 -135 36 -77 77 -121 146 -155
49 -24 70 -29 138 -29 67 -1 89 3 140 27 118 55 232 168 352 347 102 151 145
235 306 596 53 119 55 113 -38 106z"/>
<path d="M2344 1870 c-19 -7 -42 -30 -31 -30 2 0 21 9 43 20 38 19 29 27 -12
10z"/>
<path d="M2372 1853 c-17 -8 -67 -49 -109 -90 l-78 -75 40 6 c70 12 131 36
155 61 13 13 27 22 31 19 5 -3 6 3 2 12 -4 10 -2 15 3 11 6 -3 8 8 6 29 -5 43
-11 46 -50 27z"/>
<path d="M2233 1784 l-48 -47 55 44 c30 24 57 44 59 46 2 2 -1 3 -7 3 -6 0
-33 -21 -59 -46z"/>
<path d="M2155 1700 c-3 -5 -1 -10 4 -10 6 0 11 5 11 10 0 6 -2 10 -4 10 -3 0
-8 -4 -11 -10z"/>
<path d="M4337 1769 c-80 -79 -81 -81 -48 -75 78 14 113 29 151 65 52 49 56
91 10 91 -25 0 -46 -16 -113 -81z"/>
<path d="M2516 1444 c-3 -9 -1 -23 5 -32 9 -15 10 -15 5 2 -4 10 -1 25 5 32 7
9 8 14 1 14 -5 0 -13 -7 -16 -16z"/>
<path d="M4472 607 c-7 -18 -12 -39 -12 -45 0 -14 56 -16 65 -3 6 10 -24 81
-35 81 -3 0 -11 -15 -18 -33z"/>
<path d="M1257 605 c-24 -50 -22 -55 23 -55 22 0 40 2 40 5 0 13 -33 85 -39
85 -4 0 -15 -16 -24 -35z"/>
<path d="M3140 620 c0 -39 1 -40 38 -41 l37 -2 -35 -6 c-33 -6 -35 -8 -35 -46
0 -39 1 -40 36 -43 53 -4 99 36 99 86 -1 59 -38 92 -104 92 -35 0 -36 -1 -36
-40z"/>
<path d="M3510 615 c0 -43 1 -45 29 -45 47 0 61 10 61 41 0 31 -23 49 -64 49
-24 0 -26 -3 -26 -45z"/>
</g>
</svg>
